<?xml version="1.0" encoding="UTF-8"?>
<svg xmlns="http://www.w3.org/2000/svg" width="1774" height="887" viewBox="0 0 1774 887" role="img" aria-labelledby="title desc">
  <title id="title">gracz.pl — trwa modernizacja serwisu</title>
  <desc id="desc">Nowa strona startowa gracz.pl w stylistyce premium casino z informacją o modernizacji serwisu.</desc>
  <defs>
    <linearGradient id="bg" x1="0" y1="0" x2="1" y2="1">
      <stop offset="0" stop-color="#090706"/>
      <stop offset=".44" stop-color="#19110d"/>
      <stop offset=".72" stop-color="#081a1b"/>
      <stop offset="1" stop-color="#110805"/>
    </linearGradient>
    <linearGradient id="felt" x1="0" y1="0" x2="1" y2="1">
      <stop offset="0" stop-color="#052f2a"/>
      <stop offset=".48" stop-color="#06483d"/>
      <stop offset="1" stop-color="#031c1b"/>
    </linearGradient>
    <linearGradient id="panel" x1="0" y1="0" x2="1" y2="1">
      <stop offset="0" stop-color="#071110" stop-opacity=".96"/>
      <stop offset=".55" stop-color="#07100f" stop-opacity=".94"/>
      <stop offset="1" stop-color="#100b08" stop-opacity=".96"/>
    </linearGradient>
    <linearGradient id="gold" x1="0" y1="0" x2="1" y2="0">
      <stop offset="0" stop-color="#fff1b0"/>
      <stop offset=".42" stop-color="#dca633"/>
      <stop offset=".72" stop-color="#fff2b8"/>
      <stop offset="1" stop-color="#e28d22"/>
    </linearGradient>
    <linearGradient id="headlineGold" x1="0" y1="0" x2="1" y2="0">
      <stop offset="0" stop-color="#fff7df"/>
      <stop offset=".42" stop-color="#f6cf6a"/>
      <stop offset=".74" stop-color="#fff5d6"/>
      <stop offset="1" stop-color="#e4a43c"/>
    </linearGradient>
    <linearGradient id="cardGold" x1="0" y1="0" x2="1" y2="1">
      <stop offset="0" stop-color="#39290b" stop-opacity=".66"/>
      <stop offset="1" stop-color="#0b0f0e" stop-opacity=".96"/>
    </linearGradient>
    <linearGradient id="cardGreen" x1="0" y1="0" x2="1" y2="1">
      <stop offset="0" stop-color="#063d2d" stop-opacity=".64"/>
      <stop offset="1" stop-color="#08100f" stop-opacity=".96"/>
    </linearGradient>
    <linearGradient id="cardRed" x1="0" y1="0" x2="1" y2="1">
      <stop offset="0" stop-color="#4a110d" stop-opacity=".63"/>
      <stop offset="1" stop-color="#110c0b" stop-opacity=".96"/>
    </linearGradient>
    <radialGradient id="lampGlow">
      <stop offset="0" stop-color="#fff0a5" stop-opacity=".9"/>
      <stop offset=".38" stop-color="#f39a2b" stop-opacity=".42"/>
      <stop offset="1" stop-color="#f39a2b" stop-opacity="0"/>
    </radialGradient>
    <radialGradient id="tealGlow">
      <stop offset="0" stop-color="#1cf3ff" stop-opacity=".72"/>
      <stop offset="1" stop-color="#1cf3ff" stop-opacity="0"/>
    </radialGradient>
    <filter id="blur18"><feGaussianBlur stdDeviation="18"/></filter>
    <filter id="blur9"><feGaussianBlur stdDeviation="9"/></filter>
    <filter id="softGlow" x="-50%" y="-50%" width="200%" height="200%">
      <feGaussianBlur stdDeviation="5" result="b"/>
      <feMerge><feMergeNode in="b"/><feMergeNode in="SourceGraphic"/></feMerge>
    </filter>
    <filter id="shadow" x="-20%" y="-20%" width="140%" height="140%">
      <feDropShadow dx="0" dy="10" stdDeviation="18" flood-color="#000" flood-opacity=".72"/>
    </filter>
    <filter id="goldGlow" x="-50%" y="-50%" width="200%" height="200%">
      <feGaussianBlur stdDeviation="3" result="b"/>
      <feFlood flood-color="#ffb52d" flood-opacity=".55" result="c"/>
      <feComposite in="c" in2="b" operator="in" result="g"/>
      <feMerge><feMergeNode in="g"/><feMergeNode in="SourceGraphic"/></feMerge>
    </filter>
    <filter id="grain" x="-20%" y="-20%" width="140%" height="140%">
      <feTurbulence baseFrequency=".8" numOctaves="2" seed="7" type="fractalNoise" result="n"/>
      <feColorMatrix in="n" type="saturate" values="0" result="ns"/>
      <feComponentTransfer in="ns"><feFuncA type="table" tableValues="0 .045"/></feComponentTransfer>
    </filter>
    <clipPath id="panelClip"><rect x="294" y="120" width="1145" height="580" rx="28"/></clipPath>
  </defs>

  <!-- cinematic casino background -->
  <rect width="1774" height="887" fill="url(#bg)"/>
  <rect width="1774" height="887" filter="url(#grain)" opacity=".55"/>

  <!-- warm bokeh -->
  <g filter="url(#blur18)">
    <circle cx="76" cy="107" r="70" fill="url(#lampGlow)"/>
    <circle cx="188" cy="68" r="38" fill="#ff9e34" opacity=".6"/>
    <circle cx="432" cy="48" r="21" fill="#ff9c20" opacity=".8"/>
    <circle cx="533" cy="62" r="16" fill="#32d5ef" opacity=".7"/>
    <circle cx="623" cy="72" r="20" fill="#26d7f5" opacity=".55"/>
    <circle cx="1109" cy="56" r="19" fill="#1dcce7" opacity=".8"/>
    <circle cx="1198" cy="47" r="30" fill="#ffaf2c" opacity=".7"/>
    <circle cx="1436" cy="71" r="32" fill="#ff9f24" opacity=".66"/>
    <circle cx="1653" cy="104" r="74" fill="url(#lampGlow)"/>
  </g>

  <!-- lounge seating -->
  <g opacity=".92">
    <rect x="-20" y="219" width="300" height="295" rx="70" fill="#4b100d"/>
    <rect x="-5" y="246" width="270" height="257" rx="54" fill="#671512"/>
    <path d="M8 270H244M7 328H254M6 389H258" stroke="#8d2a21" stroke-width="6" opacity=".35"/>
    <rect x="1484" y="218" width="320" height="295" rx="70" fill="#4a110e"/>
    <rect x="1510" y="246" width="275" height="258" rx="54" fill="#641512"/>
    <path d="M1526 272H1771M1518 329H1778M1511 391H1781" stroke="#8e2b22" stroke-width="6" opacity=".34"/>
  </g>

  <!-- lamps -->
  <g filter="url(#softGlow)">
    <ellipse cx="115" cy="151" rx="112" ry="94" fill="url(#lampGlow)" opacity=".75"/>
    <path d="M54 50h122l-19 85H72z" fill="#f6c774"/>
    <path d="M64 55h103l-15 70H79z" fill="#ffe2a0"/>
    <rect x="107" y="130" width="16" height="88" rx="8" fill="#af6b28"/>
    <ellipse cx="115" cy="219" rx="35" ry="9" fill="#8d4a1d"/>
    <ellipse cx="1651" cy="150" rx="115" ry="96" fill="url(#lampGlow)" opacity=".75"/>
    <path d="M1590 52h122l-19 84h-84z" fill="#f6c774"/>
    <path d="M1601 58h100l-14 68h-72z" fill="#ffe2a0"/>
    <rect x="1643" y="131" width="16" height="88" rx="8" fill="#af6b28"/>
    <ellipse cx="1651" cy="220" rx="35" ry="9" fill="#8d4a1d"/>
  </g>

  <!-- teal room highlights -->
  <g filter="url(#blur9)" opacity=".6">
    <rect x="558" y="18" width="48" height="14" rx="7" fill="#14dff5"/>
    <rect x="656" y="33" width="72" height="17" rx="8" fill="#19cbe7"/>
    <rect x="1056" y="20" width="62" height="15" rx="7" fill="#22d4ec"/>
  </g>

  <!-- green felt table -->
  <path d="M0 548 C330 505 650 516 911 562 C1198 613 1489 613 1774 544 L1774 887 L0 887Z" fill="url(#felt)"/>
  <path d="M0 666 C384 625 774 633 1091 687 C1340 730 1562 725 1774 670" stroke="#c58931" stroke-width="3" fill="none" opacity=".7"/>
  <path d="M0 727 C402 684 775 695 1085 742 C1351 782 1561 785 1774 730" stroke="#b87928" stroke-width="2" fill="none" opacity=".35"/>

  <!-- left chip stacks -->
  <g transform="translate(8 364)" filter="url(#shadow)">
    <g transform="translate(0 0)">
      <ellipse cx="62" cy="18" rx="58" ry="15" fill="#151515" stroke="#d69d34" stroke-width="5"/>
      <rect x="4" y="18" width="116" height="18" fill="#161616" stroke="#d69d34" stroke-width="3"/>
      <ellipse cx="62" cy="36" rx="58" ry="15" fill="#1c1c1c" stroke="#d69d34" stroke-width="5"/>
      <rect x="4" y="36" width="116" height="18" fill="#111" stroke="#d69d34" stroke-width="3"/>
      <ellipse cx="62" cy="54" rx="58" ry="15" fill="#151515" stroke="#d69d34" stroke-width="5"/>
    </g>
    <g transform="translate(96 62)">
      <ellipse cx="52" cy="16" rx="50" ry="14" fill="#9b0f0c" stroke="#ff5034" stroke-width="4"/>
      <rect x="2" y="16" width="100" height="17" fill="#7c0c0a" stroke="#f0402e" stroke-width="3"/>
      <ellipse cx="52" cy="33" rx="50" ry="14" fill="#9b0f0c" stroke="#ff5034" stroke-width="4"/>
      <rect x="2" y="33" width="100" height="17" fill="#7c0c0a" stroke="#f0402e" stroke-width="3"/>
      <ellipse cx="52" cy="50" rx="50" ry="14" fill="#9b0f0c" stroke="#ff5034" stroke-width="4"/>
    </g>
  </g>

  <!-- cards -->
  <g transform="translate(82 546) rotate(-8)" filter="url(#shadow)">
    <rect width="118" height="160" rx="9" fill="#f5eddc"/>
    <text x="17" y="38" font-family="Georgia, serif" font-size="28" font-weight="700" fill="#141414">A</text>
    <text x="17" y="72" font-family="Georgia, serif" font-size="28" fill="#111">♠</text>
  </g>
  <g transform="translate(172 531) rotate(8)" filter="url(#shadow)">
    <rect width="118" height="160" rx="9" fill="#f5eddc"/>
    <text x="17" y="38" font-family="Georgia, serif" font-size="28" font-weight="700" fill="#b51e19">A</text>
    <text x="17" y="72" font-family="Georgia, serif" font-size="28" fill="#c31b16">♥</text>
  </g>

  <!-- foreground poker chip -->
  <g transform="translate(145 760)" filter="url(#shadow)">
    <circle r="94" fill="#070808" stroke="#c9952e" stroke-width="11"/>
    <circle r="73" fill="#111" stroke="#f0ae37" stroke-width="3" stroke-dasharray="21 12"/>
    <circle r="42" fill="#151515" stroke="#2f2f2f" stroke-width="3"/>
    <text x="0" y="18" text-anchor="middle" font-family="Georgia, serif" font-size="55" fill="#f1ad31">♠</text>
  </g>

  <!-- right glass -->
  <g transform="translate(1600 388)" filter="url(#goldGlow)">
    <path d="M0 0h100l-12 126c-1 15-14 27-29 27H41c-15 0-28-12-29-27z" fill="#23130d" fill-opacity=".55" stroke="#f2bd73" stroke-width="3"/>
    <path d="M8 71h84l-6 55c-1 10-9 18-19 18H33c-10 0-18-8-19-18z" fill="#a74b18" fill-opacity=".58"/>
    <path d="M7 18l88 92M94 16L8 110M28 5l50 142M72 6L27 145" stroke="#f5d09a" stroke-width="3" opacity=".56"/>
  </g>

  <!-- right chip stacks -->
  <g transform="translate(1646 585)" filter="url(#shadow)">
    <ellipse cx="48" cy="13" rx="46" ry="12" fill="#9b0d0b" stroke="#ff5637" stroke-width="4"/>
    <rect x="2" y="13" width="92" height="16" fill="#7e0c0a" stroke="#ef402b" stroke-width="3"/>
    <ellipse cx="48" cy="29" rx="46" ry="12" fill="#9b0d0b" stroke="#ff5637" stroke-width="4"/>
    <rect x="2" y="29" width="92" height="16" fill="#7e0c0a" stroke="#ef402b" stroke-width="3"/>
    <ellipse cx="48" cy="45" rx="46" ry="12" fill="#9b0d0b" stroke="#ff5637" stroke-width="4"/>
  </g>

  <!-- bottom-right leather mat -->
  <g transform="translate(1364 684) rotate(2)" filter="url(#shadow)">
    <rect width="388" height="169" rx="4" fill="#17120f" stroke="#4f3522" stroke-width="3"/>
    <path d="M195 43c-18-30-50-24-50 4 0 21 25 32 50 52 25-20 50-31 50-52 0-28-32-34-50-4z" fill="#f4c651"/>
    <path d="M183 83h24l14 35h-52z" fill="#f4c651"/>
    <text x="194" y="139" text-anchor="middle" font-family="Arial, sans-serif" font-size="43" font-style="italic" font-weight="700" fill="#f3bf48">gracz.pl</text>
  </g>

  <!-- central panel -->
  <g filter="url(#shadow)">
    <rect x="294" y="120" width="1145" height="580" rx="28" fill="url(#panel)" stroke="url(#gold)" stroke-width="2.4"/>
    <rect x="296" y="122" width="1141" height="576" rx="26" fill="none" stroke="#ffb63d" stroke-opacity=".22"/>
  </g>

  <!-- panel glow accents -->
  <g clip-path="url(#panelClip)" opacity=".48" filter="url(#blur18)">
    <ellipse cx="645" cy="673" rx="225" ry="48" fill="#0dcd8d"/>
    <ellipse cx="1297" cy="640" rx="210" ry="52" fill="#ee5a20"/>
  </g>

  <!-- logo & status -->
  <text x="347" y="198" font-family="Arial, Helvetica, sans-serif" font-size="45" font-weight="800" fill="#f3f3f3">gracz<tspan fill="#ff1746">.pl</tspan></text>
  <g transform="translate(532 164)">
    <rect width="268" height="47" rx="24" fill="#06271e" stroke="#00a36f" stroke-width="1.6"/>
    <circle cx="25" cy="23.5" r="8" fill="#00e88d" filter="url(#softGlow)"/>
    <text x="48" y="31" font-family="Arial, sans-serif" font-size="17" fill="#edf7f2">Trwa modernizacja serwisu</text>
  </g>

  <!-- headline -->
  <text x="347" y="288" font-family="Arial, Helvetica, sans-serif" font-size="66" font-weight="800" letter-spacing="-1.4">
    <tspan fill="#f6f6f6">gracz</tspan><tspan fill="#ff143f">.pl</tspan><tspan fill="url(#headlineGold)"> wraca w nowej odsłonie.</tspan>
  </text>

  <!-- intro -->
  <text x="347" y="339" font-family="Arial, Helvetica, sans-serif" font-size="21" fill="#e9ecec">
    <tspan x="347" dy="0">Tworzymy nową odsłonę gracz.pl — rozwijamy gry online, dopracowujemy rozgrywkę i budujemy mocny</tspan>
    <tspan x="347" dy="31">fundament pod funkcje społecznościowe. Wracamy wkrótce z bardziej gamingowym, nowoczesnym serwisem.</tspan>
  </text>

  <!-- feature card 1 -->
  <g>
    <rect x="328" y="400" width="356" height="182" rx="20" fill="url(#cardGold)" stroke="#d9a522" stroke-width="1.8"/>
    <g transform="translate(355 426)" filter="url(#goldGlow)">
      <path d="M44 0L82 15v34c0 29-20 49-38 59C26 98 6 78 6 49V15z" fill="#5d3b0c" stroke="#ffd45c" stroke-width="5"/>
      <rect x="31" y="43" width="27" height="29" rx="5" fill="#f6c84b"/>
      <path d="M37 43v-8c0-10 14-10 14 0v8" fill="none" stroke="#f6c84b" stroke-width="5"/>
    </g>
    <text x="462" y="451" font-family="Georgia, serif" font-size="25" font-weight="700" fill="#f3deb1">Bezpieczeństwo</text>
    <line x1="462" y1="472" x2="503" y2="472" stroke="#dcb240" stroke-width="2"/>
    <text x="462" y="503" font-family="Arial, sans-serif" font-size="17" fill="#ebeeee">
      <tspan x="462" dy="0">Porządkujemy architekturę,</tspan>
      <tspan x="462" dy="25">uprawnienia i proces</tspan>
      <tspan x="462" dy="25">wdrożeniowy.</tspan>
    </text>
  </g>

  <!-- feature card 2 -->
  <g>
    <rect x="698" y="400" width="338" height="182" rx="20" fill="url(#cardGreen)" stroke="#00b87d" stroke-width="1.8"/>
    <g transform="translate(726 432)">
      <ellipse cx="40" cy="57" rx="32" ry="11" fill="#a7100f" stroke="#f35533" stroke-width="3"/>
      <rect x="8" y="44" width="64" height="13" fill="#740d0b" stroke="#f35533" stroke-width="2"/>
      <ellipse cx="40" cy="44" rx="32" ry="11" fill="#ae1512" stroke="#f35533" stroke-width="3"/>
      <circle cx="79" cy="62" r="32" fill="#101313" stroke="#dca135" stroke-width="4"/>
      <text x="79" y="73" text-anchor="middle" font-family="Georgia, serif" font-size="33" fill="#efb136">♠</text>
    </g>
    <text x="829" y="451" font-family="Georgia, serif" font-size="25" font-weight="700" fill="#f3deb1">Gry online</text>
    <line x1="829" y1="472" x2="870" y2="472" stroke="#dcb240" stroke-width="2"/>
    <text x="829" y="503" font-family="Arial, sans-serif" font-size="17" fill="#ebeeee">
      <tspan x="829" dy="0">Przygotowujemy stabilny</tspan>
      <tspan x="829" dy="25">fundament dla rozgrywek</tspan>
      <tspan x="829" dy="25">i funkcji społecznościowych.</tspan>
    </text>
  </g>

  <!-- feature card 3 -->
  <g>
    <rect x="1050" y="400" width="354" height="182" rx="20" fill="url(#cardRed)" stroke="#c93a24" stroke-width="1.8"/>
    <g transform="translate(1081 434)" filter="url(#softGlow)">
      <rect x="0" y="0" width="64" height="66" rx="4" fill="#170f0d" stroke="#f0b94f" stroke-width="4"/>
      <rect x="12" y="10" width="40" height="42" fill="#281812"/>
      <rect x="48" y="26" width="27" height="51" rx="5" fill="#130e0d" stroke="#ff9d39" stroke-width="3"/>
      <circle cx="61.5" cy="70" r="2" fill="#f1b451"/>
    </g>
    <text x="1189" y="451" font-family="Georgia, serif" font-size="25" font-weight="700" fill="#f3deb1">Nowy gracz.pl</text>
    <line x1="1189" y1="472" x2="1230" y2="472" stroke="#d45c3f" stroke-width="2"/>
    <text x="1189" y="503" font-family="Arial, sans-serif" font-size="17" fill="#ebeeee">
      <tspan x="1189" dy="0">Odświeżamy serwis tak, aby</tspan>
      <tspan x="1189" dy="25">był wygodny na komputerach</tspan>
      <tspan x="1189" dy="25">i urządzeniach mobilnych.</tspan>
    </text>
  </g>

  <!-- bottom panel section -->
  <line x1="347" y1="611" x2="1389" y2="611" stroke="#c89937" stroke-width="1.8" opacity=".85"/>
  <text x="347" y="661" font-family="Arial, sans-serif" font-size="23" fill="#f0c34c">Dziękujemy za cierpliwość.</text>
  <g transform="translate(742 640)">
    <line x1="0" y1="15" x2="116" y2="15" stroke="#d4a538" stroke-width="1.5" opacity=".75"/>
    <text x="142" y="25" text-anchor="middle" font-family="Georgia, serif" font-size="25" fill="#e5b943">♠</text>
    <line x1="167" y1="15" x2="283" y2="15" stroke="#d4a538" stroke-width="1.5" opacity=".75"/>
    <text x="142" y="47" text-anchor="middle" font-family="Georgia, serif" font-size="14" font-weight="700" letter-spacing="7" fill="#e9b94b">WKRÓTCE WRACAMY</text>
  </g>
  <text x="1284" y="662" font-family="Arial, sans-serif" font-size="19" fill="#eceeee">© <tspan font-weight="800">gracz</tspan><tspan fill="#ff1643" font-weight="800">.pl</tspan></text>
</svg>